# xmcd
#
# Track frame offsets:
#	150
#	15452
#	29660
#	40355
#	55744
#	71791
#	86920
#	101313
#	115572
#	131025
#
# Disc length: 1932 seconds
#
# Revision: 0
# Processed by: cddbd v1.5.2PL0 Copyright (c) Steve Scherf et al.
# Submitted via: EasyCDDAExtractor 16.0.6.1
#
DISCID=83078a0a
DTITLE=Συλλογικός δίσκος - Λαϊκό τραγούδι 1954-1967, 1959-5
DYEAR=2008
DGENRE=Λαϊκή
TTITLE0=Γαβαλάς Πάνος-Γκίκα Βούλα - Χωρίς τον ξενοδόχο λογαριάζαμε [Χάρης Λεμο
TTITLE0=νόπουλος]
TTITLE1=Καζαντζίδης Στέλιος - Σαν συννεφιασμένη μέρα [Μπάμπης Μπακάλης]
TTITLE2=Γαβαλάς Πάνος - Αν κερδίσω το προπό [Γιώργος Ροβερτάκης]
TTITLE3=Αγγελόπουλος Μανώλης-Νέγκρη Π. - Γκρεμίζουν την Αθήνα την παλιά [Γιώργ
TTITLE3=ος Μητσάκης]
TTITLE4=Γκρέϋ Καίτη - Η Ταμάρα [Βασίλης Καραπατάκης]
TTITLE5=Γαβαλάς Πάνος-Γκίκα Βούλα - Μάγισσα Θεσσαλονίκη (Νυφούλα Θερμαϊκού)[Π.
TTITLE5=Γαβαλάς-Φώτ. Ζησούλης]
TTITLE6=Γαβαλάς Πάνος - Κρυφό μαράζι [Πάνος Γαβαλάς-Νίκος Δαλέζιος]
TTITLE7=Πάνου Πόλυ - Μαυρομάτα, μαυρομάτα [Βασίλης Τσιτσάνης]
TTITLE8=Ζαγοραίος Σπύρος - Θα πεθάνω γλυκειά μου αγάπη [Δημήτρης Γκούτης]
TTITLE9=Αγγελόπουλος Μανώλης - Οι νέοι μάγκες [Γιώργος Λαύκας]
EXTD=
EXTT0=
EXTT1=
EXTT2=
EXTT3=
EXTT4=
EXTT5=
EXTT6=
EXTT7=
EXTT8=
EXTT9=
PLAYORDER=
